<svg width="24" height="24" viewBox="0 0 24 24" fill="none" xmlns="http://www.w3.org/2000/svg">
<path d="M5.58984 2.375C5.81727 2.375 6.04119 2.42445 6.2373 2.51855L6.24316 2.52051C6.44727 2.61476 6.62303 2.75287 6.76172 2.95312L6.76367 2.95703L9.08398 6.22656L9.08594 6.22949C9.25214 6.46038 9.36671 6.66425 9.44336 6.85156L9.44531 6.85742C9.52069 7.03331 9.55469 7.19319 9.55469 7.32031C9.55464 7.44363 9.52856 7.57199 9.46973 7.70312L9.39941 7.83496L9.39355 7.8457C9.2845 8.03861 9.11748 8.25166 8.89453 8.47461L8.88965 8.48047L8.13477 9.26465C7.94871 9.4507 7.8653 9.67887 7.86523 9.92969C7.86523 10.0452 7.88009 10.1464 7.90625 10.251L7.91113 10.2715L7.91895 10.292C7.93719 10.3406 7.95588 10.3836 7.96875 10.4141C7.98274 10.4471 7.98944 10.4644 7.99414 10.4785L8.00488 10.5107L8.02051 10.54C8.21824 10.9025 8.54762 11.3541 8.99414 11.8818L8.99609 11.8857C9.44981 12.41 9.93533 12.9457 10.4619 13.4824L10.4648 13.4854C10.5185 13.539 10.5742 13.5923 10.626 13.6416C10.679 13.6921 10.7283 13.739 10.7744 13.7852L10.7783 13.7881C11.0303 14.0338 11.0354 14.434 10.7852 14.6846L8.93457 16.5352C8.69223 16.7772 8.30432 16.7817 8.04785 16.5381C7.99166 16.4821 7.93613 16.4289 7.88379 16.3789C7.82832 16.326 7.77603 16.276 7.72461 16.2246C6.83535 15.3266 6.02245 14.3912 5.28516 13.4189L4.97363 12.999C4.1674 11.8779 3.52175 10.7626 3.05469 9.66309C2.60064 8.56057 2.37501 7.52055 2.375 6.54004C2.375 5.90448 2.4869 5.30179 2.70801 4.74902L2.70898 4.74707C2.92756 4.19162 3.27526 3.67734 3.76758 3.21289L3.77344 3.20703C4.3567 2.633 4.96594 2.37504 5.58984 2.375Z" fill="#1262D1" stroke="#1262D1" stroke-width="0.75"/>
<path d="M16.6401 14.415C16.7752 14.415 16.9268 14.4434 17.1079 14.5175C17.2963 14.5946 17.5028 14.7096 17.7388 14.8701L21.0435 17.2158L21.0464 17.2187C21.2562 17.3639 21.386 17.5207 21.4644 17.6962C21.5489 17.9094 21.5952 18.1098 21.5952 18.33C21.5952 18.5642 21.5539 18.8099 21.4692 19.0488C21.4384 19.131 21.414 19.1923 21.3843 19.2519L21.3813 19.2597C21.2262 19.5882 21.026 19.8973 20.7622 20.1884C20.3169 20.6791 19.8349 21.0278 19.2993 21.2548H19.2964L19.229 21.2822C18.684 21.5039 18.0914 21.6249 17.4497 21.6249C16.4892 21.6249 15.4495 21.3986 14.3374 20.9247C13.3563 20.5067 12.3719 19.9602 11.3911 19.2841L10.9712 18.9872C10.694 18.7811 10.4227 18.5778 10.1597 18.3701L12.9106 15.6191C13.1003 15.7494 13.276 15.8585 13.436 15.9423L13.4526 15.9511L13.4712 15.9579C13.4862 15.964 13.5056 15.973 13.5366 15.9872C13.5652 16.0004 13.6021 16.0179 13.6421 16.0351L13.6499 16.038L13.6587 16.041C13.7934 16.0914 13.9215 16.1054 14.0405 16.1054C14.3141 16.1053 14.5373 16.0023 14.7134 15.8271L15.4731 15.0771L15.4751 15.0751C15.7099 14.8403 15.92 14.678 16.104 14.582L16.1147 14.5771L16.1255 14.5703C16.304 14.4617 16.4671 14.415 16.6401 14.415ZM19.2173 21.29C19.2159 21.2907 19.2186 21.2887 19.2222 21.287L19.2241 21.2851C19.2202 21.287 19.2176 21.2898 19.2173 21.29Z" fill="#1262D1" stroke="#1262D1" stroke-width="0.75"/>
</svg>
