<svg width="48" height="48" viewBox="0 0 48 48" fill="none" xmlns="http://www.w3.org/2000/svg">
<path fill-rule="evenodd" clip-rule="evenodd" d="M4 14C4 8.47715 8.47715 4 14 4H34C39.5228 4 44 8.47715 44 14V34C44 39.5228 39.5228 44 34 44H14C8.47715 44 4 39.5228 4 34V14ZM33.4142 17.5858C34.1953 18.3668 34.1953 19.6332 33.4142 20.4142L23.4142 30.4142C22.7308 31.0976 21.6758 31.1831 20.8995 30.6705C20.7886 30.5973 20.6834 30.5118 20.5858 30.4142L14.5858 24.4142C13.8047 23.6332 13.8047 22.3668 14.5858 21.5858C15.3668 20.8047 16.6332 20.8047 17.4142 21.5858L22 26.1716L30.5858 17.5858C31.3668 16.8047 32.6332 16.8047 33.4142 17.5858Z" fill="#38DA2A"/>
</svg>
