<svg width="20" height="20" viewBox="0 0 20 20" fill="none" xmlns="http://www.w3.org/2000/svg">
<path d="M13.3333 9.16667H12.5V2.5C12.5 1.58333 11.75 0.833332 10.8333 0.833332H9.16667C8.25 0.833332 7.5 1.58333 7.5 2.5V9.16667H6.66667C4.36667 9.16667 2.5 11.0333 2.5 13.3333V19.1667H17.5V13.3333C17.5 11.0333 15.6333 9.16667 13.3333 9.16667ZM15.8333 17.5H14.1667V15C14.1667 14.5417 13.7917 14.1667 13.3333 14.1667C12.875 14.1667 12.5 14.5417 12.5 15V17.5H10.8333V15C10.8333 14.5417 10.4583 14.1667 10 14.1667C9.54167 14.1667 9.16667 14.5417 9.16667 15V17.5H7.5V15C7.5 14.5417 7.125 14.1667 6.66667 14.1667C6.20833 14.1667 5.83333 14.5417 5.83333 15V17.5H4.16667V13.3333C4.16667 11.9583 5.29167 10.8333 6.66667 10.8333H13.3333C14.7083 10.8333 15.8333 11.9583 15.8333 13.3333V17.5Z" fill="#334150"/>
</svg>
