<svg width="16" height="16" viewBox="0 0 16 16" fill="none" xmlns="http://www.w3.org/2000/svg">
<path d="M7.33301 10H8.66634V11.3334H7.33301V10ZM7.33301 4.66671H8.66634V8.66671H7.33301V4.66671ZM7.99301 1.33337C4.31301 1.33337 1.33301 4.32004 1.33301 8.00004C1.33301 11.68 4.31301 14.6667 7.99301 14.6667C11.6797 14.6667 14.6663 11.68 14.6663 8.00004C14.6663 4.32004 11.6797 1.33337 7.99301 1.33337ZM7.99967 13.3334C5.05301 13.3334 2.66634 10.9467 2.66634 8.00004C2.66634 5.05337 5.05301 2.66671 7.99967 2.66671C10.9463 2.66671 13.333 5.05337 13.333 8.00004C13.333 10.9467 10.9463 13.3334 7.99967 13.3334Z" fill="#ED3023"/>
</svg>
