<svg width="22" height="22" viewBox="0 0 22 22" fill="none" xmlns="http://www.w3.org/2000/svg">
<path d="M9.04066 20.7778V12.0313H6.11115V8.55556H9.04066V5.81702C9.04066 2.84167 10.8587 1.22223 13.5132 1.22223C14.7851 1.22223 15.8775 1.31772 16.1945 1.35973V4.46876H14.3535C12.9098 4.46876 12.6309 5.15626 12.6309 6.16077V8.55556H15.8889L15.442 12.0313H12.6309V20.7778" fill="white" fill-opacity="0.01"/>
<mask id="mask0_411_43050" style="mask-type:luminance" maskUnits="userSpaceOnUse" x="6" y="1" width="11" height="20">
<path d="M9.04066 20.7778V12.0313H6.11115V8.55556H9.04066V5.81702C9.04066 2.84167 10.8587 1.22223 13.5132 1.22223C14.7851 1.22223 15.8775 1.31772 16.1945 1.35973V4.46876H14.3535C12.9098 4.46876 12.6309 5.15626 12.6309 6.16077V8.55556H15.8889L15.442 12.0313H12.6309V20.7778" fill="white"/>
</mask>
<g mask="url(#mask0_411_43050)">
<rect x="1.22223" y="1.22223" width="19.5556" height="19.5556" fill="#334150"/>
</g>
</svg>
