<svg width="20" height="20" viewBox="0 0 20 20" fill="none" xmlns="http://www.w3.org/2000/svg">
<path d="M9.99967 11.5833L8.22467 13.325C7.75801 13.7917 7.49967 14.4 7.49967 15.05C7.49967 16.4 8.62467 17.5 9.99967 17.5C11.3747 17.5 12.4997 16.4 12.4997 15.05C12.4997 14.4 12.2413 13.7833 11.7747 13.325L9.99967 11.5833Z" fill="#1262D1"/>
<path d="M13.333 5.83333L12.9663 6.29167C11.983 7.51667 9.99967 6.825 9.99967 5.25V2.5C9.99967 2.5 3.33301 5.83333 3.33301 11.6667C3.33301 14.1 4.63301 16.225 6.57467 17.3833C6.10801 16.725 5.83301 15.9167 5.83301 15.05C5.83301 13.95 6.26634 12.9167 7.05801 12.1333L9.99967 9.25L12.9413 12.1417C13.733 12.9167 14.1663 13.95 14.1663 15.0583C14.1663 15.9083 13.908 16.6917 13.458 17.35C15.033 16.3917 16.1997 14.8 16.5497 12.9333C17.0997 9.975 15.658 7.18333 13.333 5.83333Z" fill="#1262D1"/>
</svg>
