<svg width="20" height="20" viewBox="0 0 20 20" fill="none" xmlns="http://www.w3.org/2000/svg">
<mask id="mask0_106_9903" style="mask-type:alpha" maskUnits="userSpaceOnUse" x="0" y="0" width="20" height="20">
<circle cx="10" cy="10" r="10" fill="#D9D9D9"/>
</mask>
<g mask="url(#mask0_106_9903)">
<rect width="6.66667" height="20" transform="matrix(-4.37114e-08 1 1 4.37114e-08 0 0)" fill="#0091DA"/>
<path d="M14.1964 0.839628L14.4448 0.277779L14.6932 0.839628L15.2781 0.914384L14.8467 1.3364L14.9598 1.94445L14.4448 1.59722L13.9298 1.94445L14.0429 1.3364L13.6115 0.914384L14.1964 0.839628Z" fill="#F5F7F8"/>
<path d="M16.4186 0.839628L16.667 0.277779L16.9154 0.839628L17.5004 0.914384L17.0689 1.3364L17.1821 1.94445L16.667 1.59722L16.152 1.94445L16.2651 1.3364L15.8337 0.914384L16.4186 0.839628Z" fill="#F5F7F8"/>
<path d="M12.2226 2.22222L11.9742 2.78407L11.3892 2.85883L11.8207 3.28085L11.7075 3.88889L12.2226 3.54167L12.7376 3.88889L12.6245 3.28085L13.0559 2.85883L12.471 2.78407L12.2226 2.22222Z" fill="#F5F7F8"/>
<path d="M14.1964 2.78407L14.4448 2.22222L14.6932 2.78407L15.2781 2.85883L14.8467 3.28085L14.9598 3.88889L14.4448 3.54167L13.9298 3.88889L14.0429 3.28085L13.6115 2.85883L14.1964 2.78407Z" fill="#F5F7F8"/>
<path d="M16.667 2.22222L16.4186 2.78407L15.8337 2.85883L16.2651 3.28085L16.152 3.88889L16.667 3.54167L17.1821 3.88889L17.0689 3.28085L17.5004 2.85883L16.9154 2.78407L16.667 2.22222Z" fill="#F5F7F8"/>
<path d="M11.9742 4.72852L12.2226 4.16667L12.471 4.72852L13.0559 4.80327L12.6245 5.22529L12.7376 5.83333L12.2226 5.48611L11.7075 5.83333L11.8207 5.22529L11.3892 4.80327L11.9742 4.72852Z" fill="#F5F7F8"/>
<path d="M10.0004 4.16667L9.75197 4.72852L9.16702 4.80327L9.59846 5.22529L9.48532 5.83333L10.0004 5.48611L10.5154 5.83333L10.4023 5.22529L10.8337 4.80327L10.2487 4.72852L10.0004 4.16667Z" fill="#F5F7F8"/>
<path d="M16.4186 4.72852L16.667 4.16667L16.9154 4.72852L17.5004 4.80327L17.0689 5.22529L17.1821 5.83333L16.667 5.48611L16.152 5.83333L16.2651 5.22529L15.8337 4.80327L16.4186 4.72852Z" fill="#F5F7F8"/>
<path d="M14.4448 4.16667L14.1964 4.72852L13.6115 4.80327L14.0429 5.22529L13.9298 5.83333L14.4448 5.48611L14.9598 5.83333L14.8467 5.22529L15.2781 4.80327L14.6932 4.72852L14.4448 4.16667Z" fill="#F5F7F8"/>
<path d="M6.61768 5.2966C7.0606 5.65046 7.61138 5.77384 8.11951 5.68123C7.31934 6.24896 6.20978 6.24566 5.40501 5.6027C4.43106 4.82457 4.27231 3.40423 5.05044 2.43027C5.82856 1.45632 7.24891 1.29757 8.22286 2.0757C8.27965 2.12107 8.33367 2.16863 8.3849 2.21816C7.6532 1.92066 6.79647 2.11044 6.29224 2.74156C5.67413 3.51523 5.81983 4.65916 6.61768 5.2966Z" fill="#F5F7F8"/>
<rect width="6.66667" height="20" transform="matrix(-4.37114e-08 1 1 4.37114e-08 0 13.3333)" fill="#009B77"/>
<rect width="6.66667" height="20" transform="matrix(-4.37114e-08 1 1 4.37114e-08 0 6.66666)" fill="#DD2033"/>
<rect width="5" height="20" transform="matrix(-4.37114e-08 1 1 4.37114e-08 0 7.5)" fill="#F5F7F8"/>
</g>
</svg>
