<svg width="20" height="20" viewBox="0 0 20 20" fill="none" xmlns="http://www.w3.org/2000/svg">
<mask id="mask0_106_9907" style="mask-type:alpha" maskUnits="userSpaceOnUse" x="0" y="0" width="20" height="20">
<circle cx="10" cy="10" r="10" fill="#D9D9D9"/>
</mask>
<g mask="url(#mask0_106_9907)">
<rect y="17.5" width="17.5" height="20" transform="rotate(-90 0 17.5)" fill="#F5F7F8"/>
<rect x="10" y="5" width="2.5" height="10" transform="rotate(-90 10 5)" fill="#DD2033"/>
<rect x="10" y="10" width="2.5" height="10" transform="rotate(-90 10 10)" fill="#DD2033"/>
<rect y="15" width="2.5" height="20" transform="rotate(-90 0 15)" fill="#DD2033"/>
<rect y="20" width="2.5" height="20" transform="rotate(-90 0 20)" fill="#DD2033"/>
<rect y="10" width="10" height="10" transform="rotate(-90 0 10)" fill="#004692"/>
<path d="M7.88846 6.11111L7.39167 7.23481L6.22179 7.38432L7.08467 8.22836L6.85838 9.44444L7.88845 8.75L8.91853 9.44444L8.69224 8.22836L9.55512 7.38432L8.38524 7.23481L7.88846 6.11111Z" fill="#F5F7F8"/>
<path d="M7.88846 -0.555557L7.39167 0.568141L6.22179 0.717654L7.08467 1.56169L6.85838 2.77778L7.88845 2.08333L8.91853 2.77778L8.69224 1.56169L9.55512 0.717654L8.38524 0.568141L7.88846 -0.555557Z" fill="#F5F7F8"/>
<path d="M5.66624 2.77778L5.16945 3.90147L3.99957 4.05099L4.86244 4.89502L4.63616 6.11111L5.66623 5.41666L6.69631 6.11111L6.47002 4.89502L7.3329 4.05099L6.16301 3.90147L5.66624 2.77778Z" fill="#F5F7F8"/>
<path d="M3.16624 6.11111L2.66945 7.23481L1.49957 7.38432L2.36244 8.22836L2.13616 9.44444L3.16623 8.75L4.19631 9.44444L3.97002 8.22836L4.8329 7.38432L3.66301 7.23481L3.16624 6.11111Z" fill="#F5F7F8"/>
<path d="M3.16624 -0.555557L2.66945 0.568141L1.49957 0.717654L2.36244 1.56169L2.13616 2.77778L3.16623 2.08333L4.19631 2.77778L3.97002 1.56169L4.8329 0.717654L3.66301 0.568141L3.16624 -0.555557Z" fill="#F5F7F8"/>
<path d="M0.944019 2.77778L0.447228 3.90147L-0.722656 4.05099L0.140221 4.89502L-0.0860645 6.11111L0.94401 5.41666L1.97409 6.11111L1.7478 4.89502L2.61068 4.05099L1.44079 3.90147L0.944019 2.77778Z" fill="#F5F7F8"/>
</g>
</svg>
