<svg width="19" height="19" viewBox="0 0 19 19" fill="none" xmlns="http://www.w3.org/2000/svg">
<path d="M9.1875 1.53125C7.18156 1.53125 5.55078 3.16203 5.55078 5.16797C5.55078 7.13563 7.08969 8.72813 9.09563 8.79703C9.15688 8.78938 9.21813 8.78938 9.26406 8.79703C9.27938 8.79703 9.28703 8.79703 9.30234 8.79703C9.31 8.79703 9.31 8.79703 9.31766 8.79703C11.2777 8.72813 12.8166 7.13563 12.8242 5.16797C12.8242 3.16203 11.1934 1.53125 9.1875 1.53125Z" fill="#7D7D82"/>
<path d="M13.0769 10.8336C10.9408 9.40952 7.45717 9.40952 5.30577 10.8336C4.33342 11.4844 3.79749 12.3648 3.79749 13.3065C3.79749 14.2483 4.33342 15.1211 5.29811 15.7642C6.36999 16.4839 7.77874 16.8437 9.18749 16.8437C10.5962 16.8437 12.005 16.4839 13.0769 15.7642C14.0415 15.1134 14.5775 14.2406 14.5775 13.2912C14.5698 12.3495 14.0415 11.4767 13.0769 10.8336Z" fill="#7D7D82"/>
</svg>
