<svg width="20" height="20" viewBox="0 0 20 20" fill="none" xmlns="http://www.w3.org/2000/svg">
<path d="M17.9667 8.95L16.8417 7.63333C16.6334 7.38333 16.4584 6.91667 16.4584 6.58333V5.16667C16.4584 4.28333 15.7334 3.55833 14.8501 3.55833H13.4334C13.1001 3.55833 12.6251 3.38333 12.3751 3.175L11.0584 2.05C10.4834 1.55833 9.54173 1.55833 8.96673 2.05L7.6334 3.175C7.3834 3.38333 6.91673 3.55833 6.5834 3.55833H5.14173C4.2584 3.55833 3.5334 4.28333 3.5334 5.16667V6.58333C3.5334 6.90833 3.36673 7.375 3.1584 7.625L2.0334 8.95C1.55007 9.53333 1.55007 10.4667 2.0334 11.0333L3.1584 12.3583C3.36673 12.6 3.5334 13.075 3.5334 13.4V14.825C3.5334 15.7083 4.2584 16.4333 5.14173 16.4333H6.59173C6.91673 16.4333 7.39173 16.6083 7.64173 16.8167L8.9584 17.9417C9.5334 18.4333 10.4751 18.4333 11.0501 17.9417L12.3667 16.8167C12.6167 16.6083 13.0834 16.4333 13.4167 16.4333H14.8334C15.7167 16.4333 16.4417 15.7083 16.4417 14.825V13.4083C16.4417 13.075 16.6167 12.6083 16.8251 12.3583L17.9501 11.0417C18.4584 10.475 18.4584 9.53333 17.9667 8.95ZM9.37506 6.775C9.37506 6.43333 9.6584 6.15 10.0001 6.15C10.3417 6.15 10.6251 6.43333 10.6251 6.775V10.8C10.6251 11.1417 10.3417 11.425 10.0001 11.425C9.6584 11.425 9.37506 11.1417 9.37506 10.8V6.775ZM10.0001 14.0583C9.54173 14.0583 9.16673 13.6833 9.16673 13.225C9.16673 12.7667 9.5334 12.3917 10.0001 12.3917C10.4584 12.3917 10.8334 12.7667 10.8334 13.225C10.8334 13.6833 10.4667 14.0583 10.0001 14.0583Z" fill="white"/>
</svg>
