<svg width="22" height="22" viewBox="0 0 22 22" fill="none" xmlns="http://www.w3.org/2000/svg">
<path d="M5.93283 1.88169C4.00629 2.13316 2.43352 3.62495 2.04992 5.56428C1.96041 6.00755 1.96041 15.9045 2.04992 16.3478C2.29287 17.5668 3.00893 18.6366 4.02761 19.3143C4.46236 19.5999 4.88006 19.7832 5.45972 19.9451L5.8689 20.056H11.0475C16.8059 20.056 16.4478 20.073 17.2704 19.7661C18.4639 19.3143 19.4485 18.3297 19.9003 17.1363C20.2071 16.318 20.1901 16.6675 20.1901 10.956C20.1901 5.24461 20.2071 5.59411 19.9003 4.77576C19.4485 3.57807 18.4681 2.59775 17.2704 2.14595C16.4606 1.84333 16.857 1.86464 11.2607 1.85185C8.48166 1.84759 6.08628 1.86038 5.93283 1.88169ZM16.1878 5.2233C16.9295 5.44493 17.0616 6.37837 16.4095 6.80886C16.1878 6.95804 15.8085 6.97508 15.5485 6.84722C15.3567 6.74919 15.1564 6.49345 15.0924 6.25476C14.9646 5.77313 15.3908 5.21477 15.9321 5.16363C15.9577 5.15936 16.0727 5.1892 16.1878 5.2233ZM12.2069 6.5787C12.9954 6.78755 13.6347 7.14984 14.2314 7.7295C14.841 8.32196 15.2501 9.01671 15.4675 9.83932C15.5698 10.2059 15.5826 10.3337 15.5826 10.956C15.5826 11.5783 15.5698 11.7062 15.4675 12.0727C15.2416 12.9209 14.8836 13.5262 14.2272 14.174C13.3108 15.0776 12.2069 15.5081 10.941 15.4612C9.72624 15.4144 8.7033 14.9626 7.86364 14.0973C7.28823 13.5006 6.92594 12.8698 6.70857 12.0727C6.61053 11.7062 6.59775 11.5826 6.59775 10.956C6.59775 10.3295 6.61053 10.2059 6.70857 9.83932C6.93446 9.01671 7.33938 8.3177 7.94888 7.7295C8.61806 7.08164 9.28723 6.72361 10.2164 6.52329C10.7662 6.40394 11.6315 6.42952 12.2069 6.5787Z" fill="#334150"/>
<path d="M10.3444 8.30483C9.38966 8.5904 8.6736 9.32351 8.43066 10.2612C8.34115 10.6022 8.34115 11.3097 8.43066 11.655C8.6736 12.5927 9.4877 13.4025 10.4126 13.6199C10.7621 13.7008 11.4185 13.7008 11.7637 13.6199C12.71 13.3982 13.5027 12.6097 13.75 11.6507C13.8395 11.3097 13.8395 10.6022 13.75 10.2569C13.6562 9.89892 13.3877 9.39597 13.1362 9.1104C12.8634 8.80778 12.4073 8.50516 12.0152 8.3645C11.606 8.21532 10.7451 8.18549 10.3444 8.30483Z" fill="#334150"/>
</svg>
