<svg width="24" height="24" viewBox="0 0 24 24" fill="none" xmlns="http://www.w3.org/2000/svg">
<path d="M17 14.1818C17 13.9699 17.1355 13.7847 17.3256 13.6911C17.64 13.5362 17.9277 13.3261 18.1737 13.0676L18.1905 13.0499L18.23 13.0078C18.2618 12.9739 18.3059 12.9265 18.3605 12.8669C18.4697 12.7479 18.6219 12.5797 18.803 12.3731C19.1624 11.963 19.6488 11.3867 20.1422 10.7348C20.6271 10.0939 21.1657 9.3189 21.5962 8.51717C21.9762 7.80939 22.5 6.67619 22.5 5.42857C22.5 5.32713 22.6084 5.26453 22.6825 5.33379C22.8806 5.51888 23 5.78132 23 6.06468V20.0647C23 20.3861 22.8455 20.688 22.5847 20.8759C22.3239 21.0639 21.9887 21.115 21.6838 21.0134L18.8274 20.0613C18.4028 19.9197 18.0512 19.8038 17.7535 19.7104C17.3142 19.5725 17 19.1701 17 18.7097V14.1818Z" fill="#1262D1"/>
<path d="M9.08629 6.66647C9.22522 6.3518 9.61478 6.51769 9.70809 6.84877C9.89542 7.51345 10.1755 8.09205 10.4038 8.51717L11.8578 10.7348L13.197 12.3731C13.3781 12.5797 13.5303 12.7479 13.6395 12.8669C13.6941 12.9264 13.7382 12.9739 13.77 13.0078L13.805 13.0451L13.8185 13.0594L13.8266 13.0679C14.0726 13.3265 14.3603 13.5364 14.6744 13.6912C14.8645 13.7848 15 13.97 15 14.1819V19.0554C15 19.453 14.7642 19.8127 14.406 19.9854C14.1446 20.1115 13.8414 20.262 13.4833 20.441L11.2411 21.5623C10.8836 21.7412 10.556 21.9052 10.2484 22.0502C9.64185 22.3362 9 21.8757 9 21.205V7.07401C9 6.93093 9.03052 6.79277 9.08629 6.66647Z" fill="#1262D1"/>
<path d="M5.85418 22.3934C6.44574 22.5726 7 22.1127 7 21.4946V7.41968C7 6.95924 6.68578 6.55686 6.24646 6.419C5.94884 6.3256 5.59717 6.20965 5.17257 6.06811L2.31623 5.116C2.01128 5.01435 1.67606 5.06549 1.41529 5.25344C1.15452 5.44139 1 5.74324 1 6.06468V20.0647C1 20.4951 1.27543 20.8773 1.68377 21.0134L4.72046 22.0257C5.1318 22.163 5.50562 22.2878 5.85418 22.3934Z" fill="#1262D1"/>
<path fill-rule="evenodd" clip-rule="evenodd" d="M15.2627 11.6758L15.2717 11.6852L15.2754 11.6891C15.4641 11.8875 15.7262 12 16 12C16.2738 12 16.5362 11.8872 16.7249 11.6888L16.7283 11.6852L16.7373 11.6758L16.7695 11.6414C16.7972 11.6118 16.837 11.5691 16.8871 11.5145C16.9873 11.4053 17.1292 11.2485 17.2989 11.0549C17.6375 10.6686 18.0913 10.1305 18.5474 9.52784C19.0007 8.92886 19.4719 8.24567 19.8341 7.57102C20.1793 6.92832 20.5 6.16039 20.5 5.42857C20.5 2.9634 18.4657 1 16 1C13.5343 1 11.5 2.9634 11.5 5.42857C11.5 6.16039 11.8207 6.92832 12.1659 7.57102C12.5281 8.24567 12.9993 8.92886 13.4526 9.52784C13.9087 10.1305 14.3625 10.6686 14.7011 11.0549C14.8708 11.2485 15.0127 11.4053 15.1129 11.5145C15.163 11.5691 15.2028 11.6118 15.2305 11.6414L15.2627 11.6758Z" fill="#1262D1"/>
</svg>
