<svg width="20" height="20" viewBox="0 0 20 20" fill="none" xmlns="http://www.w3.org/2000/svg">
<path d="M10.8337 4.99999C10.8337 4.53975 10.4606 4.16666 10.0003 4.16666C9.54009 4.16666 9.16699 4.53975 9.16699 4.99999V9.16666H5.00033C4.54009 9.16666 4.16699 9.53975 4.16699 9.99999C4.16699 10.4602 4.54009 10.8333 5.00033 10.8333H9.16699V15C9.16699 15.4602 9.54009 15.8333 10.0003 15.8333C10.4606 15.8333 10.8337 15.4602 10.8337 15V10.8333H15.0003C15.4606 10.8333 15.8337 10.4602 15.8337 9.99999C15.8337 9.53975 15.4606 9.16666 15.0003 9.16666H10.8337V4.99999Z" fill="white"/>
</svg>
