<svg width="22" height="22" viewBox="0 0 22 22" fill="none" xmlns="http://www.w3.org/2000/svg">
<path d="M14.442 13.0671H13.7178L13.4611 12.8196C14.3595 11.7746 14.9003 10.4179 14.9003 8.94208C14.9003 5.65125 12.2328 2.98375 8.94198 2.98375C5.65114 2.98375 2.98364 5.65125 2.98364 8.94208C2.98364 12.2329 5.65114 14.9004 8.94198 14.9004C10.4178 14.9004 11.7745 14.3596 12.8195 13.4612L13.067 13.7179V14.4421L17.6503 19.0162L19.0161 17.6504L14.442 13.0671ZM8.94198 13.0671C6.65948 13.0671 4.81698 11.2246 4.81698 8.94208C4.81698 6.65958 6.65948 4.81708 8.94198 4.81708C11.2245 4.81708 13.067 6.65958 13.067 8.94208C13.067 11.2246 11.2245 13.0671 8.94198 13.0671ZM6.95281 11.6921L8.91448 10.2896L10.8761 11.6921L10.1153 9.43708L12.0861 8.06208H9.68448L8.91448 5.73375L8.14448 8.06208H5.73364L7.69531 9.42792L6.95281 11.6921Z" fill="#334150"/>
</svg>
