<svg width="20" height="20" viewBox="0 0 20 20" fill="none" xmlns="http://www.w3.org/2000/svg">
<path fill-rule="evenodd" clip-rule="evenodd" d="M9.16675 3.33333C5.94509 3.33333 3.33341 5.945 3.33341 9.16666C3.33341 12.3883 5.94509 15 9.16675 15C12.3884 15 15.0001 12.3883 15.0001 9.16666C15.0001 5.945 12.3884 3.33333 9.16675 3.33333ZM1.66675 9.16666C1.66675 5.02453 5.02461 1.66666 9.16675 1.66666C13.3089 1.66666 16.6667 5.02453 16.6667 9.16666C16.6667 13.3088 13.3089 16.6667 9.16675 16.6667C5.02461 16.6667 1.66675 13.3088 1.66675 9.16666Z" fill="#798898"/>
<path fill-rule="evenodd" clip-rule="evenodd" d="M13.3273 13.3274C13.6528 13.002 14.1804 13.002 14.5058 13.3274L18.0892 16.9107C18.4146 17.2362 18.4146 17.7638 18.0892 18.0892C17.7637 18.4147 17.2361 18.4147 16.9107 18.0892L13.3273 14.5059C13.0019 14.1805 13.0019 13.6528 13.3273 13.3274Z" fill="#798898"/>
</svg>
