<svg width="20" height="20" viewBox="0 0 20 20" fill="none" xmlns="http://www.w3.org/2000/svg">
<path d="M11.5933 2.16675L11.8989 4.29565L11.939 4.57886L12.2036 4.68726C12.6677 4.87745 13.0959 5.13005 13.4966 5.43823L13.7231 5.61206L13.9878 5.50562L15.9868 4.7019L17.5825 7.46265L15.8853 8.78979L15.6626 8.9646L15.6978 9.24585C15.7298 9.50247 15.7514 9.74603 15.7515 9.99976C15.7515 10.2537 15.7299 10.4978 15.6978 10.7546L15.6626 11.0359L15.8853 11.2107L17.5825 12.5369L15.9868 15.2976L13.9878 14.4949L13.7271 14.3894L13.5015 14.5583C13.094 14.8639 12.6642 15.1235 12.2036 15.3123L11.939 15.4207L11.8989 15.7039L11.5933 17.8337H8.40967L8.10498 15.7039L8.06494 15.4207L7.79932 15.3123C7.33536 15.1221 6.90693 14.8704 6.50635 14.5623L6.28076 14.3884L6.01514 14.4949L4.01611 15.2976L2.42041 12.5378L4.11768 11.2107L4.34131 11.0359L4.30615 10.7546C4.27411 10.4983 4.25146 10.2457 4.25146 9.99976C4.25148 9.75403 4.27414 9.50201 4.30615 9.24585L4.34131 8.9646L4.11768 8.78979L2.42041 7.46167L4.01611 4.7019L6.01514 5.50562L6.27686 5.61108L6.50146 5.44214C6.90889 5.13657 7.33878 4.87602 7.79932 4.68726L8.06494 4.57886L8.10498 4.29565L8.40967 2.16675L11.5933 2.16675ZM8.92432 3.2605L8.75732 4.3855L8.75635 4.38843L8.66357 5.0437L8.04736 5.29468L8.04346 5.29663C7.65653 5.45709 7.27928 5.67962 6.89502 5.96558L6.89209 5.96753L6.36768 6.36304L5.76416 6.11987H5.76318L4.70459 5.69409L4.30225 5.53296L4.08545 5.90796L3.50244 6.91675L3.28369 7.2937L3.62842 7.56128L4.52783 8.2605L5.04541 8.6687L4.96436 9.32983H4.96338L4.9624 9.34155C4.93764 9.5892 4.91848 9.80477 4.91846 9.99976C4.91846 10.0972 4.92322 10.2002 4.93115 10.3103L4.9624 10.6648L4.96436 10.6785L5.04541 11.3396L4.52783 11.7468L3.62842 12.447L3.28369 12.7146L3.50244 13.0925L4.08545 14.1003L4.30225 14.4753L4.70459 14.3142L5.76318 13.8894L5.76514 13.8884L6.38232 13.6375L6.91357 14.0466L6.91846 14.0505C7.28296 14.3239 7.65214 14.5362 8.05029 14.7029L8.05518 14.7048L8.67139 14.9539L8.92334 16.7371L8.98389 17.1667H11.0161L11.0796 16.74L11.2466 15.615V15.6121L11.3394 14.9548L11.9565 14.7048L11.9604 14.7039C12.3473 14.5434 12.7247 14.3208 13.1089 14.0349L13.1118 14.032L13.6353 13.6355L14.2397 13.8806H14.2407L15.2983 14.3054L15.7007 14.4675L15.9175 14.0925L16.5015 13.0837L16.7192 12.7068L16.3755 12.4392L15.4771 11.74H15.478L14.9575 11.3308L15.0396 10.6697L15.0405 10.658C15.0652 10.411 15.0854 10.2034 15.0854 9.99976C15.0854 9.90173 15.0826 9.80364 15.0757 9.69507L15.0396 9.32788L14.9575 8.6687L15.478 8.25952L15.48 8.25854L16.3716 7.54956L16.7095 7.28198L16.4927 6.90796L15.9097 5.90015L15.6929 5.52417L15.2905 5.68628L14.2319 6.11108L14.231 6.11206L13.6128 6.36206L13.0815 5.95386L13.0767 5.94995C12.7121 5.67657 12.343 5.4643 11.9448 5.29761L11.9399 5.29468L11.3228 5.04468L11.0718 3.26343L11.0112 2.83374H8.98682L8.92432 3.2605ZM10.0015 7.16675C11.5669 7.16675 12.8353 8.43438 12.8354 9.99976C12.8354 11.5653 11.567 12.8337 10.0015 12.8337C8.4361 12.8335 7.16846 11.5652 7.16846 9.99976C7.16863 8.4345 8.43621 7.16694 10.0015 7.16675ZM10.0015 7.83374C8.80893 7.83393 7.83563 8.80721 7.83545 9.99976C7.83545 11.1924 8.80882 12.1666 10.0015 12.1667C11.1943 12.1667 12.1685 11.1926 12.1685 9.99976C12.1683 8.8071 11.1942 7.83374 10.0015 7.83374Z" fill="black" stroke="#121116"/>
</svg>
