<svg width="20" height="20" viewBox="0 0 20 20" fill="none" xmlns="http://www.w3.org/2000/svg">
<path d="M6.66675 15C5.75008 15 5.00841 15.75 5.00841 16.6667C5.00841 17.5833 5.75008 18.3333 6.66675 18.3333C7.58342 18.3333 8.33342 17.5833 8.33342 16.6667C8.33342 15.75 7.58342 15 6.66675 15ZM1.66675 1.66666V3.33332H3.33341L6.33342 9.65832L5.20841 11.7C5.07508 11.9333 5.00008 12.2083 5.00008 12.5C5.00008 13.4167 5.75008 14.1667 6.66675 14.1667H16.6667V12.5H7.01675C6.90008 12.5 6.80841 12.4083 6.80841 12.2917L6.83342 12.1917L7.58342 10.8333H13.7917C14.4167 10.8333 14.9667 10.4917 15.2501 9.97499L18.2334 4.56666C18.3001 4.44999 18.3334 4.30832 18.3334 4.16666C18.3334 3.70832 17.9584 3.33332 17.5001 3.33332H5.17508L4.39175 1.66666H1.66675ZM15.0001 15C14.0834 15 13.3417 15.75 13.3417 16.6667C13.3417 17.5833 14.0834 18.3333 15.0001 18.3333C15.9167 18.3333 16.6667 17.5833 16.6667 16.6667C16.6667 15.75 15.9167 15 15.0001 15Z" fill="#171D23"/>
</svg>
