<svg width="22" height="22" viewBox="0 0 22 22" fill="none" xmlns="http://www.w3.org/2000/svg">
<path d="M19.9509 3.04712C19.8524 3.0747 18.2922 3.66962 16.4838 4.36304C14.6754 5.05647 10.7315 6.56545 7.71753 7.71984C4.7035 8.87423 2.09135 9.87496 1.90618 9.94982C1.28367 10.202 1 10.462 1 10.793C1 11.0057 1.0985 11.1436 1.35459 11.2815C1.52795 11.3761 6.11005 12.8338 6.27946 12.8496C6.31098 12.8535 8.73402 11.3564 11.6653 9.52037C14.5926 7.68832 17.0472 6.15964 17.1181 6.12024C17.2757 6.04144 17.5239 6.02568 17.5948 6.0966C17.6342 6.136 17.6303 6.16358 17.587 6.23844C17.5555 6.28965 15.5855 8.07443 13.2137 10.202L8.8995 14.0749L8.75766 16.0685C8.67886 17.1638 8.60006 18.2275 8.58824 18.4245L8.56066 18.791H8.73402C9.04921 18.791 9.23439 18.6452 10.5306 17.4041L11.752 16.234L14.0883 17.9439C15.6288 19.0746 16.4996 19.6853 16.6414 19.7444C16.7832 19.7996 16.9487 19.8311 17.1142 19.8311C17.5279 19.835 17.7721 19.6538 17.977 19.1849C18.0164 19.0864 18.7571 15.71 19.616 11.6794C21.1565 4.45366 21.1802 4.34729 21.1644 3.97299C21.1526 3.63416 21.1368 3.57113 21.0304 3.40171C20.8216 3.06288 20.3804 2.9171 19.9509 3.04712Z" fill="#334150"/>
</svg>
