<svg width="16" height="16" viewBox="0 0 16 16" fill="none" xmlns="http://www.w3.org/2000/svg">
<g clip-path="url(#clip0_432_26386)">
<path d="M6.00033 14.6666H12.0003C12.5537 14.6666 13.027 14.3333 13.227 13.8533L15.2403 9.15325C15.3003 8.99992 15.3337 8.83992 15.3337 8.66659V7.33325C15.3337 6.59992 14.7337 5.99992 14.0003 5.99992H9.79366L10.427 2.95325L10.447 2.73992C10.447 2.46659 10.3337 2.21325 10.1537 2.03325L9.44699 1.33325L5.05366 5.72659C4.81366 5.96659 4.66699 6.29992 4.66699 6.66659V13.3333C4.66699 14.0666 5.26699 14.6666 6.00033 14.6666ZM6.00033 6.66659L8.89366 3.77325L8.00033 7.33325H14.0003V8.66659L12.0003 13.3333H6.00033V6.66659ZM0.666992 6.66659H3.33366V14.6666H0.666992V6.66659Z" fill="#111827"/>
</g>
<defs>
<clipPath id="clip0_432_26386">
<rect width="16" height="16" fill="white"/>
</clipPath>
</defs>
</svg>
